<svg fill="#000000" height="200px" width="200px" version="1.1" id="Capa_1" xmlns="http://www.w3.org/2000/svg" xmlns:xlink="http://www.w3.org/1999/xlink" viewBox="0 0 435.882 435.882" xml:space="preserve"><g id="SVGRepo_bgCarrier" stroke-width="0"></g><g id="SVGRepo_tracerCarrier" stroke-linecap="round" stroke-linejoin="round"></g><g id="SVGRepo_iconCarrier"> <g> <path d="M435.393,168.165c-1.018-3.13-3.51-5.56-6.665-6.496l-127.28-37.785L226.179,14.508c-1.866-2.711-4.946-4.331-8.238-4.331 s-6.372,1.62-8.238,4.331l-75.268,109.375L7.155,161.669c-3.155,0.937-5.648,3.366-6.665,6.496 c-1.017,3.13-0.429,6.561,1.574,9.173l80.763,105.382L79.43,415.449c-0.084,3.291,1.456,6.412,4.119,8.346 c2.663,1.934,6.106,2.436,9.21,1.338l125.182-44.245l125.183,44.245c1.085,0.384,2.211,0.572,3.331,0.572 c2.084,0,4.147-0.651,5.879-1.91c2.663-1.935,4.203-5.056,4.119-8.346l-3.397-132.728l80.764-105.382 C435.822,174.726,436.409,171.295,435.393,168.165z M335.032,273.36c-1.391,1.815-2.118,4.053-2.06,6.339l3.116,121.734 l-114.814-40.581c-2.156-0.763-4.509-0.763-6.665,0L99.795,401.434l3.115-121.734c0.059-2.286-0.668-4.523-2.06-6.339 l-74.074-96.654l116.739-34.656c2.192-0.651,4.096-2.034,5.392-3.917l69.033-100.316l69.034,100.316 c1.297,1.884,3.2,3.267,5.393,3.917l116.738,34.656L335.032,273.36z"></path> <path d="M169.441,176.177c-13.785,0-25,11.215-25,25v46c0,13.785,11.215,25,25,25s25-11.215,25-25v-46 C194.441,187.392,183.226,176.177,169.441,176.177z M174.441,247.177c0,2.757-2.243,5-5,5s-5-2.243-5-5v-46c0-2.757,2.243-5,5-5 s5,2.243,5,5V247.177z"></path> <path d="M266.442,176.177c-13.785,0-25,11.215-25,25v46c0,13.785,11.215,25,25,25c13.785,0,25-11.215,25-25v-46 C291.442,187.392,280.227,176.177,266.442,176.177z M271.442,247.177c0,2.757-2.243,5-5,5s-5-2.243-5-5v-46c0-2.757,2.243-5,5-5 s5,2.243,5,5V247.177z"></path> </g> </g></svg>